<svg width="324.8" height="72.102" viewBox="0 0 324.8 72.102" xmlns="http://www.w3.org/2000/svg"><g id="svgGroup" stroke-linecap="round" fill-rule="evenodd" font-size="9pt" stroke="#ffffff" stroke-width="0.25mm" fill="#ffffff" style="stroke:#ffffff;stroke-width:0.25mm;fill:#ffffff"><path d="M 193 8.401 L 191.1 11.001 A 30.643 30.643 0 0 0 188.432 8.503 A 25.76 25.76 0 0 0 187 7.401 Q 184.9 5.901 182.5 5.001 A 26.989 26.989 0 0 0 177.904 3.739 A 30.041 30.041 0 0 0 177.4 3.651 A 32.699 32.699 0 0 0 174.017 3.275 A 41.367 41.367 0 0 0 171.5 3.201 A 47.041 47.041 0 0 0 165.709 3.532 Q 158.786 4.393 155.1 7.501 Q 150 11.801 150 19.001 A 17.629 17.629 0 0 0 150.248 22.056 Q 150.54 23.71 151.173 25.037 A 8.852 8.852 0 0 0 152.2 26.701 A 10.914 10.914 0 0 0 154.623 28.931 Q 155.796 29.738 157.291 30.404 A 23.404 23.404 0 0 0 159.2 31.151 Q 162.425 32.259 166.914 33.345 A 161.234 161.234 0 0 0 171.6 34.401 A 117.879 117.879 0 0 1 178.023 35.897 Q 180.926 36.664 183.455 37.52 A 65.699 65.699 0 0 1 185.1 38.101 A 26.536 26.536 0 0 1 189.284 40.044 Q 191.577 41.379 193.238 43.079 A 15.613 15.613 0 0 1 193.9 43.801 A 12.07 12.07 0 0 1 196.341 48.467 Q 197 50.797 197 53.701 Q 197 58.201 195.25 61.651 Q 193.5 65.101 190.2 67.401 A 21.339 21.339 0 0 1 185.805 69.727 A 28.036 28.036 0 0 1 182.25 70.851 A 38.488 38.488 0 0 1 176.687 71.781 A 50.113 50.113 0 0 1 171.9 72.001 A 49.751 49.751 0 0 1 165.088 71.552 A 41.347 41.347 0 0 1 161.3 70.851 Q 156.4 69.701 152.1 67.301 Q 147.8 64.901 144 61.201 L 146.1 58.601 Q 148.5 61.201 151.35 63.151 Q 154.2 65.101 157.45 66.401 A 34.895 34.895 0 0 0 163.895 68.267 A 38.448 38.448 0 0 0 164.35 68.351 A 42.802 42.802 0 0 0 170.759 68.985 A 48.241 48.241 0 0 0 172 69.001 A 43.22 43.22 0 0 0 178.105 68.597 Q 181.267 68.145 183.855 67.187 A 19.491 19.491 0 0 0 187.75 65.251 A 12.005 12.005 0 0 0 193.33 56.605 A 16.446 16.446 0 0 0 193.5 54.201 A 16.875 16.875 0 0 0 193.179 50.808 Q 192.604 48.008 191 46.051 A 13.628 13.628 0 0 0 188.201 43.513 Q 186.189 42.117 183.4 41.051 A 57.558 57.558 0 0 0 179.181 39.638 Q 177.019 38.998 174.511 38.402 A 125.754 125.754 0 0 0 170.4 37.501 A 135.925 135.925 0 0 1 164.955 36.259 Q 162.292 35.59 159.987 34.875 A 68.56 68.56 0 0 1 157.35 34.001 A 23.37 23.37 0 0 1 153.703 32.365 Q 150.969 30.826 149.25 28.701 Q 146.822 25.699 146.538 20.827 A 22.758 22.758 0 0 1 146.5 19.501 A 21.243 21.243 0 0 1 147.088 14.383 A 16.105 16.105 0 0 1 149.6 8.851 A 18.229 18.229 0 0 1 155.812 3.421 A 23.222 23.222 0 0 1 158.3 2.251 Q 163.818 0.034 171.181 0.001 A 49.722 49.722 0 0 1 171.4 0.001 A 40.833 40.833 0 0 1 176.192 0.27 A 31.91 31.91 0 0 1 179.8 0.901 Q 183.6 1.801 186.85 3.601 A 25.017 25.017 0 0 1 191.294 6.767 A 30.126 30.126 0 0 1 193 8.401 Z M 320.8 8.401 L 318.9 11.001 A 30.643 30.643 0 0 0 316.232 8.503 A 25.76 25.76 0 0 0 314.8 7.401 Q 312.7 5.901 310.3 5.001 A 26.989 26.989 0 0 0 305.704 3.739 A 30.041 30.041 0 0 0 305.2 3.651 A 32.699 32.699 0 0 0 301.817 3.275 A 41.367 41.367 0 0 0 299.3 3.201 A 47.041 47.041 0 0 0 293.509 3.532 Q 286.586 4.393 282.9 7.501 Q 277.8 11.801 277.8 19.001 A 17.629 17.629 0 0 0 278.048 22.056 Q 278.34 23.71 278.973 25.037 A 8.852 8.852 0 0 0 280 26.701 A 10.914 10.914 0 0 0 282.423 28.931 Q 283.596 29.738 285.091 30.404 A 23.404 23.404 0 0 0 287 31.151 Q 290.225 32.259 294.714 33.345 A 161.234 161.234 0 0 0 299.4 34.401 A 117.879 117.879 0 0 1 305.823 35.897 Q 308.726 36.664 311.255 37.52 A 65.699 65.699 0 0 1 312.9 38.101 A 26.536 26.536 0 0 1 317.084 40.044 Q 319.377 41.379 321.038 43.079 A 15.613 15.613 0 0 1 321.7 43.801 A 12.07 12.07 0 0 1 324.141 48.467 Q 324.8 50.797 324.8 53.701 Q 324.8 58.201 323.05 61.651 Q 321.3 65.101 318 67.401 A 21.339 21.339 0 0 1 313.605 69.727 A 28.036 28.036 0 0 1 310.05 70.851 A 38.488 38.488 0 0 1 304.487 71.781 A 50.113 50.113 0 0 1 299.7 72.001 A 49.751 49.751 0 0 1 292.888 71.552 A 41.347 41.347 0 0 1 289.1 70.851 Q 284.2 69.701 279.9 67.301 Q 275.6 64.901 271.8 61.201 L 273.9 58.601 Q 276.3 61.201 279.15 63.151 Q 282 65.101 285.25 66.401 A 34.895 34.895 0 0 0 291.695 68.267 A 38.448 38.448 0 0 0 292.15 68.351 A 42.802 42.802 0 0 0 298.559 68.985 A 48.241 48.241 0 0 0 299.8 69.001 A 43.22 43.22 0 0 0 305.905 68.597 Q 309.067 68.145 311.655 67.187 A 19.491 19.491 0 0 0 315.55 65.251 A 12.005 12.005 0 0 0 321.13 56.605 A 16.446 16.446 0 0 0 321.3 54.201 A 16.875 16.875 0 0 0 320.979 50.808 Q 320.404 48.008 318.8 46.051 A 13.628 13.628 0 0 0 316.001 43.513 Q 313.989 42.117 311.2 41.051 A 57.558 57.558 0 0 0 306.981 39.638 Q 304.819 38.998 302.311 38.402 A 125.754 125.754 0 0 0 298.2 37.501 A 135.925 135.925 0 0 1 292.755 36.259 Q 290.092 35.59 287.787 34.875 A 68.56 68.56 0 0 1 285.15 34.001 A 23.37 23.37 0 0 1 281.503 32.365 Q 278.769 30.826 277.05 28.701 Q 274.622 25.699 274.338 20.827 A 22.758 22.758 0 0 1 274.3 19.501 A 21.243 21.243 0 0 1 274.888 14.383 A 16.105 16.105 0 0 1 277.4 8.851 A 18.229 18.229 0 0 1 283.612 3.421 A 23.222 23.222 0 0 1 286.1 2.251 Q 291.618 0.034 298.981 0.001 A 49.722 49.722 0 0 1 299.2 0.001 A 40.833 40.833 0 0 1 303.992 0.27 A 31.91 31.91 0 0 1 307.6 0.901 Q 311.4 1.801 314.65 3.601 A 25.017 25.017 0 0 1 319.094 6.767 A 30.126 30.126 0 0 1 320.8 8.401 Z M 59.6 15.601 L 56.6 17.001 A 26.757 26.757 0 0 0 53.51 12.284 A 21.496 21.496 0 0 0 50.15 9.001 A 25.513 25.513 0 0 0 43.962 5.404 A 23.364 23.364 0 0 0 41.95 4.701 Q 37.6 3.401 33.2 3.401 A 30.746 30.746 0 0 0 26.094 4.191 A 25.119 25.119 0 0 0 20.55 6.201 Q 15 9.001 11.2 13.701 Q 7.4 18.401 5.45 24.151 Q 3.5 29.901 3.5 35.801 Q 3.5 42.401 5.8 48.301 Q 8.1 54.201 12.15 58.801 Q 16.2 63.401 21.65 66.101 Q 27.1 68.801 33.5 68.801 A 29.298 29.298 0 0 0 40.799 67.848 A 34.226 34.226 0 0 0 42.7 67.301 A 28.12 28.12 0 0 0 51.436 62.651 A 31.615 31.615 0 0 0 51.5 62.601 A 23.322 23.322 0 0 0 57.596 55.36 A 27.319 27.319 0 0 0 58.1 54.401 L 61.2 55.601 Q 58.8 60.901 54.2 64.601 Q 49.6 68.301 44.05 70.201 A 34.879 34.879 0 0 1 36.149 71.951 A 31.187 31.187 0 0 1 33.1 72.101 Q 25.9 72.101 19.8 68.951 Q 13.7 65.801 9.25 60.551 Q 4.8 55.301 2.4 48.751 Q 0 42.201 0 35.501 Q 0 29.101 2.25 22.851 Q 4.5 16.601 8.8 11.451 Q 13.1 6.301 19.35 3.201 A 29.638 29.638 0 0 1 28.771 0.404 A 37.449 37.449 0 0 1 33.6 0.101 A 34.529 34.529 0 0 1 41.351 0.93 A 25.739 25.739 0 0 1 49.75 4.451 A 27.488 27.488 0 0 1 57.527 11.97 A 26.285 26.285 0 0 1 59.6 15.601 Z M 202.2 71.501 L 232.8 0.501 L 235.8 0.501 L 266.3 71.501 L 262.6 71.501 L 252.1 47.001 L 216.5 47.001 L 206 71.501 L 202.2 71.501 Z M 93.447 70.687 A 31.143 31.143 0 0 0 102.6 72.001 Q 109.6 72.001 115.65 69.101 Q 121.7 66.201 126.2 61.151 Q 130.7 56.101 133.2 49.651 Q 135.7 43.201 135.7 36.001 Q 135.7 29.401 133.3 23.001 Q 130.9 16.601 126.55 11.401 Q 122.2 6.201 116.1 3.101 Q 110 0.001 102.6 0.001 Q 95.6 0.001 89.55 2.951 Q 83.5 5.901 78.95 10.951 Q 74.4 16.001 71.9 22.451 Q 69.4 28.901 69.4 36.001 Q 69.4 42.801 71.8 49.251 Q 74.2 55.701 78.6 60.801 Q 83 65.901 89.1 68.951 A 28.025 28.025 0 0 0 93.447 70.687 Z M 72.9 36.001 Q 72.9 42.401 75.1 48.251 Q 77.3 54.101 81.25 58.701 Q 85.2 63.301 90.65 66.001 A 26.293 26.293 0 0 0 101.591 68.684 A 30.721 30.721 0 0 0 102.6 68.701 A 27.059 27.059 0 0 0 111.519 67.254 A 25.147 25.147 0 0 0 114.7 65.901 Q 120.2 63.101 124.1 58.401 Q 128 53.701 130.1 47.901 Q 132.2 42.101 132.2 36.001 Q 132.2 29.601 130 23.751 Q 127.8 17.901 123.8 13.301 Q 119.8 8.701 114.35 6.001 Q 108.9 3.301 102.6 3.301 A 27.685 27.685 0 0 0 94.713 4.395 A 24.524 24.524 0 0 0 90.45 6.101 Q 85 8.901 81.1 13.601 Q 77.2 18.301 75.05 24.101 Q 72.9 29.901 72.9 36.001 Z M 217.5 44.001 L 251 44.001 L 234.3 4.901 L 217.5 44.001 Z" vector-effect="non-scaling-stroke"/></g></svg>