<?xml version="1.0" encoding="utf-8"?>
<svg width="324.8" height="72.102" viewBox="0 0 324.8 72.102" xmlns="http://www.w3.org/2000/svg">
  <defs/>
  <path d="M -0.087 -0.162 L 325.082 -0.162 L 325.082 72.289 L -0.087 72.289 Z M 131.538 36.46 C 131.538 18.318 118.248 3.611 101.854 3.611 C 85.46 3.611 72.171 18.318 72.171 36.46 C 72.171 54.602 85.46 69.309 101.854 69.309 C 118.248 69.309 131.538 54.602 131.538 36.46 Z" style="stroke: rgba(255, 255, 255, 0);"/>
  <g id="svgGroup" stroke-linecap="round" fill-rule="evenodd" font-size="9pt" stroke="#ffffff" stroke-width="0.25mm" fill="#000" style="stroke:#ffffff;stroke-width:0.25mm;fill:#ffffff" transform="matrix(1, 0, 0, 1, -0.610924, 0.392579)">
    <path d="M 193 8.401 L 191.1 11.001 C 190.261 10.116 189.37 9.282 188.432 8.503 C 187.968 8.119 187.49 7.751 187 7.401 C 185.6 6.401 184.1 5.601 182.5 5.001 C 181.008 4.446 179.47 4.023 177.904 3.739 C 177.736 3.708 177.568 3.679 177.4 3.651 C 176.28 3.467 175.15 3.342 174.017 3.275 C 173.179 3.225 172.34 3.2 171.5 3.201 C 169.565 3.192 167.631 3.303 165.709 3.532 C 161.094 4.106 157.557 5.429 155.1 7.501 C 151.7 10.368 150 14.201 150 19.001 C 149.994 20.025 150.077 21.047 150.248 22.056 C 150.443 23.159 150.751 24.152 151.173 25.037 C 151.453 25.628 151.797 26.186 152.2 26.701 C 152.89 27.563 153.707 28.314 154.623 28.931 C 155.405 29.469 156.294 29.96 157.291 30.404 C 157.916 30.681 158.553 30.93 159.2 31.151 C 161.35 31.89 163.921 32.621 166.914 33.345 C 168.471 33.72 170.033 34.072 171.6 34.401 C 173.755 34.84 175.896 35.339 178.023 35.897 C 179.958 36.408 181.769 36.949 183.455 37.52 C 184.006 37.706 184.554 37.9 185.1 38.101 C 186.548 38.626 187.948 39.276 189.284 40.044 C 190.813 40.934 192.131 41.946 193.238 43.079 C 193.466 43.313 193.687 43.553 193.9 43.801 C 195.047 45.158 195.881 46.751 196.341 48.467 C 196.78 50.02 197 51.765 197 53.701 C 197 56.701 196.417 59.351 195.25 61.651 C 194.083 63.951 192.4 65.868 190.2 67.401 C 188.831 68.345 187.356 69.126 185.805 69.727 C 184.646 70.18 183.459 70.556 182.25 70.851 C 180.421 71.297 178.562 71.607 176.687 71.781 C 175.096 71.931 173.498 72.004 171.9 72.001 C 169.622 72.007 167.346 71.857 165.088 71.552 C 163.815 71.377 162.551 71.143 161.3 70.851 C 158.033 70.084 154.967 68.901 152.1 67.301 C 149.233 65.701 146.533 63.668 144 61.201 L 146.1 58.601 C 147.7 60.334 149.45 61.851 151.35 63.151 C 153.25 64.451 155.283 65.534 157.45 66.401 C 159.533 67.229 161.692 67.853 163.895 68.267 C 164.046 68.296 164.198 68.324 164.35 68.351 C 166.467 68.723 168.61 68.935 170.759 68.985 C 171.173 68.996 171.586 69.001 172 69.001 C 174.042 69.011 176.082 68.876 178.105 68.597 C 180.213 68.296 182.13 67.826 183.855 67.187 C 185.221 66.689 186.528 66.04 187.75 65.251 C 190.814 63.353 192.862 60.178 193.33 56.605 C 193.445 55.809 193.502 55.005 193.5 54.201 C 193.508 53.062 193.4 51.925 193.179 50.808 C 192.796 48.941 192.069 47.356 191 46.051 C 190.189 45.079 189.247 44.225 188.201 43.513 C 186.86 42.582 185.259 41.762 183.4 41.051 C 182.012 40.526 180.605 40.054 179.181 39.638 C 177.74 39.211 176.183 38.799 174.511 38.402 C 173.146 38.079 171.775 37.778 170.4 37.501 C 168.577 37.124 166.761 36.71 164.955 36.259 C 163.18 35.813 161.524 35.352 159.987 34.875 C 159.102 34.602 158.223 34.31 157.35 34.001 C 156.09 33.561 154.87 33.013 153.703 32.365 C 151.88 31.339 150.396 30.118 149.25 28.701 C 147.631 26.7 146.727 24.075 146.538 20.827 C 146.512 20.385 146.5 19.943 146.5 19.501 C 146.488 17.777 146.685 16.059 147.088 14.383 C 147.567 12.396 148.419 10.519 149.6 8.851 C 151.228 6.59 153.354 4.732 155.812 3.421 C 156.617 2.982 157.448 2.592 158.3 2.251 C 161.979 0.773 166.272 0.023 171.181 0.001 C 171.254 0.001 171.327 0.001 171.4 0.001 C 173.001 -0.003 174.601 0.086 176.192 0.27 C 177.406 0.411 178.61 0.622 179.8 0.901 C 182.333 1.501 184.683 2.401 186.85 3.601 C 188.442 4.491 189.933 5.553 191.294 6.767 C 191.884 7.289 192.453 7.834 193 8.401 Z M 320.8 8.401 L 318.9 11.001 C 318.061 10.116 317.17 9.282 316.232 8.503 C 315.768 8.119 315.29 7.751 314.8 7.401 C 313.4 6.401 311.9 5.601 310.3 5.001 C 308.808 4.446 307.27 4.023 305.704 3.739 C 305.536 3.708 305.368 3.679 305.2 3.651 C 304.08 3.467 302.95 3.342 301.817 3.275 C 300.979 3.225 300.14 3.2 299.3 3.201 C 297.365 3.192 295.431 3.303 293.509 3.532 C 288.894 4.106 285.357 5.429 282.9 7.501 C 279.5 10.368 277.8 14.201 277.8 19.001 C 277.794 20.025 277.877 21.047 278.048 22.056 C 278.243 23.159 278.551 24.152 278.973 25.037 C 279.253 25.628 279.597 26.186 280 26.701 C 280.69 27.563 281.507 28.314 282.423 28.931 C 283.205 29.469 284.094 29.96 285.091 30.404 C 285.716 30.681 286.353 30.93 287 31.151 C 289.15 31.89 291.721 32.621 294.714 33.345 C 296.271 33.72 297.833 34.072 299.4 34.401 C 301.555 34.84 303.696 35.339 305.823 35.897 C 307.758 36.408 309.569 36.949 311.255 37.52 C 311.806 37.706 312.354 37.9 312.9 38.101 C 314.348 38.626 315.748 39.276 317.084 40.044 C 318.613 40.934 319.931 41.946 321.038 43.079 C 321.266 43.313 321.487 43.553 321.7 43.801 C 322.847 45.158 323.681 46.751 324.141 48.467 C 324.58 50.02 324.8 51.765 324.8 53.701 C 324.8 56.701 324.217 59.351 323.05 61.651 C 321.883 63.951 320.2 65.868 318 67.401 C 316.631 68.345 315.156 69.126 313.605 69.727 C 312.446 70.18 311.259 70.556 310.05 70.851 C 308.221 71.297 306.362 71.607 304.487 71.781 C 302.896 71.931 301.298 72.004 299.7 72.001 C 297.422 72.007 295.146 71.857 292.888 71.552 C 291.615 71.377 290.351 71.143 289.1 70.851 C 285.833 70.084 282.767 68.901 279.9 67.301 C 277.033 65.701 274.333 63.668 271.8 61.201 L 273.9 58.601 C 275.5 60.334 277.25 61.851 279.15 63.151 C 281.05 64.451 283.083 65.534 285.25 66.401 C 287.333 67.229 289.492 67.853 291.695 68.267 C 291.846 68.296 291.998 68.324 292.15 68.351 C 294.267 68.723 296.41 68.935 298.559 68.985 C 298.973 68.996 299.386 69.001 299.8 69.001 C 301.842 69.011 303.882 68.876 305.905 68.597 C 308.013 68.296 309.93 67.826 311.655 67.187 C 313.021 66.689 314.328 66.04 315.55 65.251 C 318.614 63.353 320.662 60.178 321.13 56.605 C 321.245 55.809 321.302 55.005 321.3 54.201 C 321.308 53.062 321.2 51.925 320.979 50.808 C 320.596 48.941 319.869 47.356 318.8 46.051 C 317.989 45.079 317.047 44.225 316.001 43.513 C 314.66 42.582 313.059 41.762 311.2 41.051 C 309.812 40.526 308.405 40.054 306.981 39.638 C 305.54 39.211 303.983 38.799 302.311 38.402 C 300.946 38.079 299.575 37.778 298.2 37.501 C 296.377 37.124 294.561 36.71 292.755 36.259 C 290.98 35.813 289.324 35.352 287.787 34.875 C 286.902 34.602 286.023 34.31 285.15 34.001 C 283.89 33.561 282.67 33.013 281.503 32.365 C 279.68 31.339 278.196 30.118 277.05 28.701 C 275.431 26.7 274.527 24.075 274.338 20.827 C 274.312 20.385 274.3 19.943 274.3 19.501 C 274.288 17.777 274.485 16.059 274.888 14.383 C 275.367 12.396 276.219 10.519 277.4 8.851 C 279.028 6.59 281.154 4.732 283.612 3.421 C 284.417 2.982 285.248 2.592 286.1 2.251 C 289.779 0.773 294.072 0.023 298.981 0.001 C 299.054 0.001 299.127 0.001 299.2 0.001 C 300.801 -0.003 302.401 0.086 303.992 0.27 C 305.206 0.411 306.41 0.622 307.6 0.901 C 310.133 1.501 312.483 2.401 314.65 3.601 C 316.242 4.491 317.733 5.553 319.094 6.767 C 319.684 7.289 320.253 7.834 320.8 8.401 Z M 59.6 15.601 L 56.6 17.001 C 55.739 15.324 54.703 13.743 53.51 12.284 C 52.513 11.07 47.189 16.965 45.952 15.997 C 44.069 14.513 46.183 6.306 43.962 5.404 C 43.302 5.139 42.631 4.905 41.95 4.701 C 39.05 3.834 35.783 12.496 32.85 12.496 C 30.459 12.482 28.424 3.652 26.094 4.191 C 24.173 4.641 24.062 13.361 22.299 14.246 C 18.599 16.113 13.733 10.568 11.2 13.701 C 8.667 16.834 13.746 21.717 12.446 25.55 C 11.146 29.383 3.5 31.868 3.5 35.801 C 3.5 40.201 4.267 44.368 5.8 48.301 C 7.333 52.234 9.45 55.734 12.15 58.801 C 14.85 61.868 18.017 64.301 21.65 66.101 C 25.283 67.901 29.233 68.801 33.5 68.801 C 35.963 68.791 38.416 68.471 40.799 67.848 C 41.438 67.684 42.072 67.502 42.7 67.301 C 45.864 66.28 48.822 64.705 51.436 62.651 C 51.457 62.634 51.479 62.618 51.5 62.601 C 54.006 60.629 56.08 58.165 57.596 55.36 C 57.77 55.044 57.938 54.724 58.1 54.401 L 61.2 55.601 C 59.6 59.134 57.267 62.134 54.2 64.601 C 51.133 67.068 47.75 68.934 44.05 70.201 C 41.493 71.089 38.842 71.676 36.149 71.951 C 35.136 72.051 34.118 72.101 33.1 72.101 C 28.3 72.101 23.867 71.051 19.8 68.951 C 15.733 66.851 12.217 64.051 9.25 60.551 C 6.283 57.051 4 53.118 2.4 48.751 C 0.8 44.384 0 39.968 0 35.501 C 0 31.234 0.75 27.018 2.25 22.851 C 3.75 18.684 5.933 14.884 8.8 11.451 C 11.667 8.018 15.183 5.268 19.35 3.201 C 22.313 1.751 25.497 0.806 28.771 0.404 C 30.372 0.199 31.985 0.098 33.6 0.101 C 36.207 0.084 38.807 0.362 41.351 0.93 C 44.338 1.595 47.182 2.787 49.75 4.451 C 52.815 6.417 55.458 8.973 57.527 11.97 C 58.313 13.123 59.007 14.338 59.6 15.601 Z M 202.2 71.501 L 232.8 0.501 L 235.8 0.501 L 266.3 71.501 L 262.6 71.501 L 252.1 47.001 L 216.5 47.001 L 206 71.501 L 202.2 71.501 Z M 93.447 70.687 C 96.416 71.578 99.501 72.021 102.6 72.001 C 107.267 72.001 111.617 71.034 115.65 69.101 C 119.683 67.168 123.2 64.518 126.2 61.151 C 129.2 57.784 131.533 53.951 133.2 49.651 C 134.867 45.351 135.7 40.801 135.7 36.001 C 135.7 31.601 134.9 27.268 133.3 23.001 C 131.7 18.734 129.45 14.868 126.55 11.401 C 123.65 7.934 120.167 5.168 116.1 3.101 C 112.033 1.034 107.533 0.001 102.6 0.001 C 97.933 0.001 93.583 0.984 89.55 2.951 C 85.517 4.918 81.983 7.584 78.95 10.951 C 75.917 14.318 73.567 18.151 71.9 22.451 C 70.233 26.751 69.4 31.268 69.4 36.001 C 69.4 40.534 70.2 44.951 71.8 49.251 C 73.4 53.551 75.667 57.401 78.6 60.801 C 81.533 64.201 85.033 66.918 89.1 68.951 C 90.498 69.65 91.952 70.231 93.447 70.687 Z M 72.9 36.001 C 72.9 40.268 73.633 44.351 75.1 48.251 C 76.567 52.151 78.617 55.634 81.25 58.701 C 83.883 61.768 87.017 64.201 90.65 66.001 C 94.06 67.675 97.793 68.591 101.591 68.684 C 101.927 68.695 102.264 68.701 102.6 68.701 C 105.633 68.722 108.648 68.233 111.519 67.254 C 112.609 66.876 113.672 66.424 114.7 65.901 C 118.367 64.034 121.5 61.534 124.1 58.401 C 126.7 55.268 128.7 51.768 130.1 47.901 C 131.5 44.034 132.2 40.068 132.2 36.001 C 132.2 31.734 131.467 27.651 130 23.751 C 128.533 19.851 126.467 16.368 123.8 13.301 C 121.133 10.234 117.983 7.801 114.35 6.001 C 110.717 4.201 106.8 3.301 102.6 3.301 C 99.932 3.284 97.276 3.652 94.713 4.395 C 93.242 4.829 91.815 5.4 90.45 6.101 C 86.817 7.968 83.7 10.468 81.1 13.601 C 78.5 16.734 76.483 20.234 75.05 24.101 C 73.617 27.968 72.9 31.934 72.9 36.001 Z M 217.5 44.001 L 251 44.001 L 234.3 4.901 L 217.5 44.001 Z" vector-effect="non-scaling-stroke"/>
  </g>
</svg>