<?xml version="1.0" encoding="utf-8"?>
<svg width="324.8" height="72.102" viewBox="0 0 324.8 72.102" xmlns="http://www.w3.org/2000/svg">
  <defs/>
  <path d="M -37.17 -52.786 L 350.727 -55.301 L 353.8 143.23 L -36.234 141.395 L -37.17 -52.786 Z M 132.583 36.306 C 132.583 18.164 119.293 3.457 102.899 3.457 C 86.505 3.457 73.216 18.164 73.216 36.306 C 73.216 54.448 86.505 69.155 102.899 69.155 C 119.293 69.155 132.583 54.448 132.583 36.306 Z" style="stroke: rgba(255, 255, 255, 0);"/>
  <g id="svgGroup" stroke-linecap="round" fill-rule="evenodd" font-size="9pt" stroke="#ffffff" stroke-width="0.25mm" fill="#000" style="stroke:#ffffff;stroke-width:0.25mm;fill:#ffffff" transform="matrix(1, 0, 0, 1, -0.610924, 0.392579)">
    <path d="M 193 8.401 L 191.1 11.001 C 190.261 10.116 189.37 9.282 188.432 8.503 C 187.968 8.119 187.49 7.751 187 7.401 C 185.6 6.401 184.1 5.601 182.5 5.001 C 181.008 4.446 179.47 4.023 177.904 3.739 C 177.736 3.708 177.568 3.679 177.4 3.651 C 176.28 3.467 175.15 3.342 174.017 3.275 C 173.179 3.225 172.34 3.2 171.5 3.201 C 169.565 3.192 167.631 3.303 165.709 3.532 C 161.094 4.106 157.557 5.429 155.1 7.501 C 151.7 10.368 150 14.201 150 19.001 C 149.994 20.025 150.077 21.047 150.248 22.056 C 150.443 23.159 150.751 24.152 151.173 25.037 C 151.453 25.628 151.797 26.186 152.2 26.701 C 152.89 27.563 153.707 28.314 154.623 28.931 C 155.405 29.469 156.294 29.96 157.291 30.404 C 157.916 30.681 158.553 30.93 159.2 31.151 C 161.35 31.89 163.921 32.621 166.914 33.345 C 168.471 33.72 170.033 34.072 171.6 34.401 C 173.755 34.84 175.896 35.339 178.023 35.897 C 179.958 36.408 181.769 36.949 183.455 37.52 C 184.006 37.706 184.554 37.9 185.1 38.101 C 186.548 38.626 187.948 39.276 189.284 40.044 C 190.813 40.934 192.131 41.946 193.238 43.079 C 193.466 43.313 193.687 43.553 193.9 43.801 C 195.047 45.158 195.881 46.751 196.341 48.467 C 196.78 50.02 197 51.765 197 53.701 C 197 56.701 196.417 59.351 195.25 61.651 C 194.083 63.951 192.4 65.868 190.2 67.401 C 188.831 68.345 187.356 69.126 185.805 69.727 C 184.646 70.18 183.459 70.556 182.25 70.851 C 180.421 71.297 178.562 71.607 176.687 71.781 C 175.096 71.931 173.498 72.004 171.9 72.001 C 169.622 72.007 167.346 71.857 165.088 71.552 C 163.815 71.377 162.551 71.143 161.3 70.851 C 158.033 70.084 154.967 68.901 152.1 67.301 C 149.233 65.701 146.533 63.668 144 61.201 L 146.1 58.601 C 147.7 60.334 149.45 61.851 151.35 63.151 C 153.25 64.451 155.283 65.534 157.45 66.401 C 159.533 67.229 161.692 67.853 163.895 68.267 C 164.046 68.296 164.198 68.324 164.35 68.351 C 166.467 68.723 168.61 68.935 170.759 68.985 C 171.173 68.996 171.586 69.001 172 69.001 C 174.042 69.011 176.082 68.876 178.105 68.597 C 180.213 68.296 182.13 67.826 183.855 67.187 C 185.221 66.689 186.528 66.04 187.75 65.251 C 190.814 63.353 192.862 60.178 193.33 56.605 C 193.445 55.809 193.502 55.005 193.5 54.201 C 193.508 53.062 193.4 51.925 193.179 50.808 C 192.796 48.941 192.069 47.356 191 46.051 C 190.189 45.079 189.247 44.225 188.201 43.513 C 186.86 42.582 185.259 41.762 183.4 41.051 C 182.012 40.526 180.605 40.054 179.181 39.638 C 177.74 39.211 176.183 38.799 174.511 38.402 C 173.146 38.079 171.775 37.778 170.4 37.501 C 168.577 37.124 166.761 36.71 164.955 36.259 C 163.18 35.813 161.524 35.352 159.987 34.875 C 159.102 34.602 158.223 34.31 157.35 34.001 C 156.09 33.561 154.87 33.013 153.703 32.365 C 151.88 31.339 150.396 30.118 149.25 28.701 C 147.631 26.7 146.727 24.075 146.538 20.827 C 146.512 20.385 146.5 19.943 146.5 19.501 C 146.488 17.777 146.685 16.059 147.088 14.383 C 147.567 12.396 148.419 10.519 149.6 8.851 C 151.228 6.59 153.354 4.732 155.812 3.421 C 156.617 2.982 157.448 2.592 158.3 2.251 C 161.979 0.773 166.272 0.023 171.181 0.001 C 171.254 0.001 171.327 0.001 171.4 0.001 C 173.001 -0.003 174.601 0.086 176.192 0.27 C 177.406 0.411 178.61 0.622 179.8 0.901 C 182.333 1.501 184.683 2.401 186.85 3.601 C 188.442 4.491 189.933 5.553 191.294 6.767 C 191.884 7.289 192.453 7.834 193 8.401 Z M 318.8 8.401 L 316.9 11.001 C 316.061 10.116 315.17 9.282 314.232 8.503 C 313.768 8.119 313.29 7.751 312.8 7.401 C 311.4 6.401 309.9 5.601 308.3 5.001 C 306.808 4.446 305.27 4.023 303.704 3.739 C 303.536 3.708 303.368 3.679 303.2 3.651 C 302.08 3.467 300.95 3.342 299.817 3.275 C 298.979 3.225 298.14 3.2 297.3 3.201 C 295.365 3.192 293.431 3.303 291.509 3.532 C 286.894 4.106 283.357 5.429 280.9 7.501 C 277.5 10.368 275.8 14.201 275.8 19.001 C 275.794 20.025 275.877 21.047 276.048 22.056 C 276.243 23.159 276.551 24.152 276.973 25.037 C 277.253 25.628 277.597 26.186 278 26.701 C 278.69 27.563 279.507 28.314 280.423 28.931 C 281.205 29.469 282.094 29.96 283.091 30.404 C 283.716 30.681 284.353 30.93 285 31.151 C 287.15 31.89 289.721 32.621 292.714 33.345 C 294.271 33.72 295.833 34.072 297.4 34.401 C 299.555 34.84 301.696 35.339 303.823 35.897 C 305.758 36.408 307.569 36.949 309.255 37.52 C 309.806 37.706 310.354 37.9 310.9 38.101 C 312.348 38.626 313.748 39.276 315.084 40.044 C 316.613 40.934 317.931 41.946 319.038 43.079 C 319.266 43.313 319.487 43.553 319.7 43.801 C 320.847 45.158 321.681 46.751 322.141 48.467 C 322.58 50.02 322.8 51.765 322.8 53.701 C 322.8 56.701 322.217 59.351 321.05 61.651 C 319.883 63.951 318.2 65.868 316 67.401 C 314.631 68.345 313.156 69.126 311.605 69.727 C 310.446 70.18 309.259 70.556 308.05 70.851 C 306.221 71.297 304.362 71.607 302.487 71.781 C 300.896 71.931 299.298 72.004 297.7 72.001 C 295.422 72.007 293.146 71.857 290.888 71.552 C 289.615 71.377 288.351 71.143 287.1 70.851 C 283.833 70.084 280.767 68.901 277.9 67.301 C 275.033 65.701 272.333 63.668 269.8 61.201 L 271.9 58.601 C 273.5 60.334 275.25 61.851 277.15 63.151 C 279.05 64.451 281.083 65.534 283.25 66.401 C 285.333 67.229 287.492 67.853 289.695 68.267 C 289.846 68.296 289.998 68.324 290.15 68.351 C 292.267 68.723 294.41 68.935 296.559 68.985 C 296.973 68.996 297.386 69.001 297.8 69.001 C 299.842 69.011 301.882 68.876 303.905 68.597 C 306.013 68.296 307.93 67.826 309.655 67.187 C 311.021 66.689 312.328 66.04 313.55 65.251 C 316.614 63.353 318.662 60.178 319.13 56.605 C 319.245 55.809 319.302 55.005 319.3 54.201 C 319.308 53.062 319.2 51.925 318.979 50.808 C 318.596 48.941 317.869 47.356 316.8 46.051 C 315.989 45.079 315.047 44.225 314.001 43.513 C 312.66 42.582 311.059 41.762 309.2 41.051 C 307.812 40.526 306.405 40.054 304.981 39.638 C 303.54 39.211 301.983 38.799 300.311 38.402 C 298.946 38.079 297.575 37.778 296.2 37.501 C 294.377 37.124 292.561 36.71 290.755 36.259 C 288.98 35.813 287.324 35.352 285.787 34.875 C 284.902 34.602 284.023 34.31 283.15 34.001 C 281.89 33.561 280.67 33.013 279.503 32.365 C 277.68 31.339 276.196 30.118 275.05 28.701 C 273.431 26.7 272.527 24.075 272.338 20.827 C 272.312 20.385 272.3 19.943 272.3 19.501 C 272.288 17.777 272.485 16.059 272.888 14.383 C 273.367 12.396 274.219 10.519 275.4 8.851 C 277.028 6.59 279.154 4.732 281.612 3.421 C 282.417 2.982 283.248 2.592 284.1 2.251 C 287.779 0.773 292.072 0.023 296.981 0.001 C 297.054 0.001 297.127 0.001 297.2 0.001 C 298.801 -0.003 300.401 0.086 301.992 0.27 C 303.206 0.411 304.41 0.622 305.6 0.901 C 308.133 1.501 310.483 2.401 312.65 3.601 C 314.242 4.491 315.733 5.553 317.094 6.767 C 317.684 7.289 318.253 7.834 318.8 8.401 Z M 61.6 15.601 L 58.6 17.001 C 57.739 15.324 56.703 13.743 55.51 12.284 C 54.513 11.07 53.387 9.969 52.15 9.001 C 50.267 7.517 48.183 6.306 45.962 5.404 C 45.302 5.139 44.631 4.905 43.95 4.701 C 41.05 3.834 38.133 3.401 35.2 3.401 C 32.809 3.387 30.424 3.652 28.094 4.191 C 26.173 4.641 24.313 5.316 22.55 6.201 C 18.85 8.068 15.733 10.568 13.2 13.701 C 10.667 16.834 8.75 20.318 7.45 24.151 C 6.15 27.984 5.5 31.868 5.5 35.801 C 5.5 40.201 6.267 44.368 7.8 48.301 C 9.333 52.234 11.45 55.734 14.15 58.801 C 16.85 61.868 20.017 64.301 23.65 66.101 C 27.283 67.901 31.233 68.801 35.5 68.801 C 37.963 68.791 40.416 68.471 42.799 67.848 C 43.438 67.684 44.072 67.502 44.7 67.301 C 47.864 66.28 50.822 64.705 53.436 62.651 C 53.457 62.634 53.479 62.618 53.5 62.601 C 56.006 60.629 58.08 58.165 59.596 55.36 C 59.77 55.044 59.938 54.724 60.1 54.401 L 63.2 55.601 C 61.6 59.134 59.267 62.134 56.2 64.601 C 53.133 67.068 49.75 68.934 46.05 70.201 C 43.493 71.089 40.842 71.676 38.149 71.951 C 37.136 72.051 36.118 72.101 35.1 72.101 C 30.3 72.101 25.867 71.051 21.8 68.951 C 17.733 66.851 14.217 64.051 11.25 60.551 C 8.283 57.051 6 53.118 4.4 48.751 C 2.8 44.384 2 39.968 2 35.501 C 2 31.234 2.75 27.018 4.25 22.851 C 5.75 18.684 7.933 14.884 10.8 11.451 C 13.667 8.018 17.183 5.268 21.35 3.201 C 24.313 1.751 27.497 0.806 30.771 0.404 C 32.372 0.199 33.985 0.098 35.6 0.101 C 38.207 0.084 40.807 0.362 43.351 0.93 C 46.338 1.595 49.182 2.787 51.75 4.451 C 54.815 6.417 57.458 8.973 59.527 11.97 C 60.313 13.123 61.007 14.338 61.6 15.601 Z M 201.2 71.501 L 231.8 0.501 L 234.8 0.501 L 265.3 71.501 L 261.6 71.501 L 251.1 47.001 L 215.5 47.001 L 205 71.501 L 201.2 71.501 Z M 94.447 70.687 C 97.416 71.578 100.501 72.021 103.6 72.001 C 108.267 72.001 112.617 71.034 116.65 69.101 C 120.683 67.168 124.2 64.518 127.2 61.151 C 130.2 57.784 132.533 53.951 134.2 49.651 C 135.867 45.351 136.7 40.801 136.7 36.001 C 136.7 31.601 135.9 27.268 134.3 23.001 C 132.7 18.734 130.45 14.868 127.55 11.401 C 124.65 7.934 121.167 5.168 117.1 3.101 C 113.033 1.034 108.533 0.001 103.6 0.001 C 98.933 0.001 94.583 0.984 90.55 2.951 C 86.517 4.918 82.983 7.584 79.95 10.951 C 76.917 14.318 74.567 18.151 72.9 22.451 C 71.233 26.751 70.4 31.268 70.4 36.001 C 70.4 40.534 71.2 44.951 72.8 49.251 C 74.4 53.551 76.667 57.401 79.6 60.801 C 82.533 64.201 86.033 66.918 90.1 68.951 C 91.498 69.65 92.952 70.231 94.447 70.687 Z M 73.9 36.001 C 73.9 40.268 74.633 44.351 76.1 48.251 C 77.567 52.151 79.617 55.634 82.25 58.701 C 84.883 61.768 88.017 64.201 91.65 66.001 C 95.06 67.675 98.793 68.591 102.591 68.684 C 102.927 68.695 103.264 68.701 103.6 68.701 C 106.633 68.722 109.648 68.233 112.519 67.254 C 113.609 66.876 114.672 66.424 115.7 65.901 C 119.367 64.034 122.5 61.534 125.1 58.401 C 127.7 55.268 129.7 51.768 131.1 47.901 C 132.5 44.034 133.2 40.068 133.2 36.001 C 133.2 31.734 132.467 27.651 131 23.751 C 129.533 19.851 127.467 16.368 124.8 13.301 C 122.133 10.234 118.983 7.801 115.35 6.001 C 111.717 4.201 107.8 3.301 103.6 3.301 C 100.932 3.284 98.276 3.652 95.713 4.395 C 94.242 4.829 92.815 5.4 91.45 6.101 C 87.817 7.968 84.7 10.468 82.1 13.601 C 79.5 16.734 77.483 20.234 76.05 24.101 C 74.617 27.968 73.9 31.934 73.9 36.001 Z M 216.5 44.001 L 250 44.001 L 233.3 4.901 L 216.5 44.001 Z" vector-effect="non-scaling-stroke"/>
  </g>
</svg>